# xmcd CD database file
# Copyright (C) 1995-1998 Ti Kan
#
# Track frame offsets:
#	150
#	4096
#	34870
#	38382
#	64394
#	67700
#	94130
#	99027
#	112266
#	116121
#	154082
#	158169
#	190765
#
# Disc length: 2599 seconds
#
# Revision: 1
# Processed by: cddbd v1.5.1PL0 Copyright (c) Steve Scherf et al.
# Submitted via: CDex 1.30Release
#
DISCID=9d0a250d
DTITLE=Krzak - Krzak'i
DYEAR=1982
DGENRE=Blues
TTITLE0=Biala Myszka
TTITLE1=Lista Kowbojow
TTITLE2=Plynny Owoc
TTITLE3=Kim Jestes - Listonoszem ?
TTITLE4=Blady Jak Sol
TTITLE5=Come On I
TTITLE6=Poczatek Konca, Czyli Trawa Na Sniadanie
TTITLE7=Come On II
TTITLE8=Kosma
TTITLE9=Heartbreaker Girl
TTITLE10=Ryba
TTITLE11=Blues Dla Nieobecnych
TTITLE12=Pije Kuba Wsrod Nocnej Ciszy
EXTD=YEAR: 1982 ID3G:   0
EXTT0=
EXTT1=
EXTT2=
EXTT3=
EXTT4=
EXTT5=
EXTT6=
EXTT7=
EXTT8=
EXTT9=
EXTT10=
EXTT11=
EXTT12=
PLAYORDER=
